<?xml version="1.0" standalone="no"?>
<!DOCTYPE svg PUBLIC "-//W3C//DTD SVG 20010904//EN"
 "http://www.w3.org/TR/2001/REC-SVG-20010904/DTD/svg10.dtd">
<svg version="1.0" xmlns="http://www.w3.org/2000/svg"
 width="300.000000pt" height="300.000000pt" viewBox="0 0 300.000000 300.000000"
 preserveAspectRatio="xMidYMid meet">
<metadata>
Created by potrace 1.10, written by Peter Selinger 2001-2011
</metadata>
<g transform="translate(0.000000,300.000000) scale(0.100000,-0.100000)"
fill="#000000" stroke="none">
<path d="M1386 2993 c-4 -4 -21 -8 -37 -9 -58 -3 -108 -75 -110 -156 l0 -43
-27 69 c-17 42 -38 77 -54 89 -24 18 -30 19 -58 7 -17 -7 -38 -24 -47 -36 -13
-20 -21 -23 -52 -18 -29 5 -40 2 -55 -15 -24 -26 -17 -87 13 -130 12 -17 21
-45 21 -67 0 -47 -9 -39 -49 42 -37 76 -77 124 -101 124 -27 0 -80 -48 -80
-73 0 -11 25 -74 55 -139 30 -65 55 -122 55 -127 0 -11 -35 -20 -46 -12 -5 3
-42 50 -82 103 -39 54 -83 105 -97 114 -23 15 -27 15 -52 -2 -66 -42 -68 -72
-10 -150 24 -33 60 -83 80 -112 36 -53 36 -54 21 -85 -9 -18 -18 -33 -19 -35
-7 -8 -185 87 -219 118 -74 67 -96 70 -140 21 -35 -38 -24 -70 44 -134 45 -42
73 -80 103 -140 44 -89 76 -127 105 -127 24 0 61 40 71 76 5 19 15 30 29 32
11 2 36 20 53 40 18 20 45 42 61 49 31 13 136 91 157 117 7 9 28 16 45 16 23
0 41 9 62 31 19 20 35 28 48 25 24 -6 86 19 86 35 0 7 11 9 33 5 20 -4 43 0
60 9 19 10 43 12 73 8 35 -4 49 -2 65 13 17 15 24 16 39 6 25 -15 52 -15 84
-1 20 10 32 8 61 -5 32 -16 39 -16 59 -3 13 9 29 29 36 46 16 40 26 39 34 -4
9 -47 50 -79 95 -71 27 4 40 0 63 -19 40 -34 62 -31 95 10 15 19 31 35 36 35
4 0 7 -19 7 -43 0 -70 67 -121 110 -82 18 16 19 15 38 -29 13 -28 36 -56 64
-76 36 -27 50 -31 85 -27 l41 4 -1 -42 c-3 -72 72 -150 143 -149 50 2 76 18
171 103 118 108 139 153 105 220 -18 34 -76 87 -106 96 -32 10 -106 -22 -131
-56 -24 -34 -19 -61 19 -102 l26 -27 -21 -22 -22 -21 -29 31 c-17 18 -34 32
-39 32 -4 0 -14 4 -22 9 -11 7 -8 17 16 52 50 73 83 146 83 185 0 31 -8 45
-45 81 -73 70 -116 70 -192 0 -25 -23 -65 -71 -89 -107 -37 -55 -44 -61 -44
-39 0 15 11 38 26 52 26 26 94 177 94 210 0 33 -45 67 -89 67 -22 0 -43 5 -46
10 -3 6 -16 10 -29 10 -13 0 -31 9 -41 20 -24 27 -66 25 -93 -2 -11 -13 -45
-79 -74 -148 -46 -110 -53 -121 -56 -92 -2 19 4 44 13 59 16 24 44 150 45 201
0 13 -11 34 -24 47 -22 22 -31 24 -102 20 -56 -2 -84 1 -98 11 -29 20 -59 17
-84 -9 -15 -16 -26 -51 -39 -127 -12 -78 -19 -98 -24 -80 -4 14 -7 39 -8 55
-2 60 -23 110 -63 148 -37 35 -66 46 -82 30z m44 -48 c16 -8 34 -24 40 -35 10
-19 40 -260 40 -322 0 -25 -3 -28 -35 -28 -21 0 -35 5 -35 13 0 48 -34 314
-41 322 -10 10 -13 65 -4 65 4 0 19 -7 35 -15z m-68 -25 c3 -16 0 -34 -5 -39
-5 -5 -2 -58 7 -131 9 -67 16 -139 16 -160 0 -35 -3 -38 -31 -42 -17 -3 -33 0
-35 6 -3 11 -34 297 -34 322 0 18 49 74 65 74 7 0 15 -13 17 -30z m318 3 c0
-33 -48 -365 -54 -370 -8 -8 -56 10 -56 21 0 7 11 93 25 192 14 98 25 180 25
182 0 1 14 2 30 2 26 0 30 -4 30 -27z m84 -40 c4 -32 18 -117 32 -189 13 -73
21 -139 18 -148 -4 -9 -18 -16 -34 -16 -32 0 -36 10 -46 118 -4 40 -10 72 -14
72 -5 0 -13 -13 -19 -30 -12 -35 -36 -41 -28 -7 3 12 11 51 17 87 6 36 15 76
20 90 5 14 14 37 19 53 16 42 28 32 35 -30z m102 -15 c-10 -98 -27 -171 -37
-161 -10 10 -29 130 -29 186 0 36 1 37 36 37 l37 0 -7 -62z m-678 -70 c23 -67
39 -124 37 -126 -11 -11 -112 116 -132 166 -13 31 -22 56 -20 57 61 45 70 37
115 -97z m-161 30 c21 -24 79 -86 129 -138 50 -52 97 -105 103 -118 11 -20 9
-23 -14 -32 -38 -14 -39 -14 -78 33 -19 23 -67 78 -106 122 -67 75 -101 128
-101 161 0 27 30 14 67 -28z m1027 29 c16 -12 13 -24 -49 -172 -37 -88 -71
-170 -76 -182 -8 -21 -11 -22 -36 -11 -15 7 -29 13 -31 13 -2 2 23 65 48 120
5 11 23 54 39 95 64 163 66 165 105 137z m82 -64 c-3 -21 -11 -108 -17 -193
-13 -182 -17 -193 -59 -177 -29 11 -30 13 -24 62 4 27 10 69 14 93 9 49 0 53
-28 15 -65 -89 -3 84 65 185 43 62 58 66 49 15z m-1206 -153 l90 -180 -30 -15
c-16 -8 -32 -15 -35 -15 -5 0 -175 346 -175 356 0 3 50 32 57 34 2 0 43 -81
93 -180z m1320 143 c0 -2 -14 -37 -31 -76 -17 -40 -36 -84 -42 -99 -7 -16 -16
-28 -21 -28 -13 0 3 155 20 195 13 32 15 33 44 24 16 -6 30 -13 30 -16z
m-1220 -96 c0 -7 20 -33 45 -57 28 -28 49 -60 56 -83 12 -45 13 -43 -26 -51
l-30 -6 -33 98 c-36 111 -36 112 -22 112 6 0 10 -6 10 -13z m-373 -45 c18 -26
55 -78 83 -117 28 -38 55 -77 60 -85 7 -12 13 -11 35 10 l26 25 19 -25 c20
-26 26 -50 12 -50 -4 0 -41 -25 -81 -56 l-75 -56 -18 24 c-24 31 -23 41 7 59
l25 15 -97 133 -96 133 24 19 c13 10 29 19 34 19 6 0 24 -22 42 -48z m1773 13
c0 -15 -36 -58 -56 -66 -18 -7 -135 -179 -129 -189 3 -6 -4 -24 -16 -41 l-22
-31 -13 23 c-20 36 -17 68 11 123 29 58 98 149 133 177 30 23 92 26 92 4z m50
-30 c36 -43 -13 -160 -115 -273 -41 -46 -52 -52 -86 -52 -25 0 -39 5 -39 13 0
19 29 57 45 57 17 0 147 188 139 201 -6 10 26 69 37 69 4 0 12 -7 19 -15z
m-2075 -199 c30 -30 85 -63 165 -102 66 -31 120 -60 120 -63 -1 -3 -9 -16 -20
-29 l-19 -23 -118 58 c-111 53 -223 132 -223 156 0 13 30 47 41 47 5 0 29 -20
54 -44z m2264 18 l23 -17 -28 -22 c-16 -13 -34 -20 -42 -18 -7 3 -24 -4 -37
-17 -23 -22 -23 -22 -34 -2 -19 35 -12 51 27 71 46 25 61 25 91 5z m61 -95 c0
-44 -12 -59 -125 -159 -85 -76 -107 -86 -157 -69 -21 7 -38 15 -38 17 0 15 44
50 56 45 15 -6 194 151 194 170 0 6 10 21 22 34 28 30 48 14 48 -38z m-272
-62 l23 -13 -21 -19 c-11 -10 -20 -26 -20 -35 0 -9 -11 -27 -26 -40 -21 -21
-27 -22 -34 -10 -15 24 -11 63 10 98 21 35 33 38 68 19z m-1959 -30 c28 -14
51 -37 67 -65 23 -42 24 -44 7 -67 -23 -32 -28 -31 -51 8 -54 91 -83 147 -74
147 5 0 28 -10 51 -23z"/>
<path d="M1435 2389 c-152 -20 -295 -112 -364 -235 -19 -33 -31 -42 -69 -53
-38 -10 -59 -26 -116 -87 -38 -41 -77 -74 -87 -74 -36 0 -70 -24 -97 -69 -38
-62 -133 -252 -161 -324 -13 -31 -36 -73 -52 -93 -37 -46 -67 -176 -81 -353
-11 -128 -10 -139 8 -176 31 -65 67 -78 204 -71 121 5 236 24 309 50 24 9 59
16 77 16 47 0 53 -31 25 -120 -20 -63 -25 -105 -30 -262 -1 -53 -10 -58 -48
-28 -33 25 -54 25 -87 -1 -24 -19 -29 -19 -49 -7 -12 8 -50 18 -85 21 -58 6
-65 5 -88 -18 -24 -24 -24 -27 -24 -195 0 -167 1 -172 24 -195 20 -20 31 -23
85 -20 35 2 72 10 86 19 24 16 27 16 52 -4 33 -26 61 -25 90 2 l23 22 38 -21
c24 -14 52 -20 82 -19 43 2 90 22 90 38 0 5 9 8 20 8 11 0 20 -4 20 -10 0 -30
105 -42 162 -19 21 9 31 8 50 -5 27 -19 57 -20 81 -2 16 12 22 12 47 -2 24
-14 34 -15 61 -5 19 7 38 9 48 4 27 -15 141 -4 161 14 18 16 21 16 46 -4 22
-17 41 -21 101 -21 41 0 82 4 92 10 12 6 29 5 50 -3 26 -9 36 -9 59 5 24 14
30 14 46 2 29 -21 60 -17 85 10 20 21 22 33 22 137 0 63 0 130 1 150 0 43 -24
94 -54 110 -27 15 -146 21 -169 8 -12 -6 -27 -5 -43 3 -22 10 -26 18 -26 57 0
44 20 164 38 226 5 18 15 29 25 29 21 -2 31 61 21 134 -6 51 -8 54 -14 27 -4
-16 -21 -64 -37 -105 -17 -41 -35 -100 -42 -130 -26 -130 -31 -163 -31 -200
l0 -40 -495 0 -494 0 6 33 c3 17 9 39 14 48 4 8 5 33 2 55 -3 26 4 70 22 131
34 118 27 153 -29 165 -29 6 -57 2 -115 -16 -66 -21 -159 -35 -333 -50 -69 -6
-128 11 -139 41 -24 64 0 312 47 484 2 9 14 21 27 26 15 7 29 32 46 79 22 64
159 343 183 372 6 7 26 11 46 10 29 -2 40 4 69 37 112 125 126 137 159 132 36
-6 48 4 79 67 31 61 104 128 186 169 59 30 93 40 164 48 136 15 233 -2 346
-62 73 -39 120 -92 164 -181 30 -63 33 -66 49 -50 16 16 17 16 14 -3 -2 -15 5
-20 40 -27 52 -9 90 -31 127 -75 34 -42 21 -43 -22 -1 l-32 31 20 -54 c42
-109 21 -214 -53 -266 -18 -12 -33 -21 -34 -20 -2 1 4 24 13 50 20 60 10 151
-18 175 -10 9 -19 22 -19 28 0 6 -11 28 -25 49 -15 20 -24 39 -21 42 4 4 18
-9 60 -57 28 -32 48 -85 56 -149 l7 -66 2 54 c0 29 -4 72 -11 93 -16 53 -94
141 -118 133 -12 -4 -22 1 -29 12 -6 10 -11 13 -11 6 0 -6 13 -24 29 -40 28
-28 28 -31 33 -168 6 -158 21 -207 79 -262 40 -37 77 -53 125 -53 19 0 34 -4
34 -10 0 -14 -89 -13 -131 1 -19 7 -44 21 -56 32 -13 11 -26 18 -29 15 -3 -4
6 -14 19 -23 14 -9 29 -29 32 -45 9 -41 75 -139 119 -178 47 -41 41 -50 -14
-22 -23 12 -44 19 -47 16 -3 -2 1 -31 8 -63 16 -75 14 -251 -4 -330 -16 -75
-4 -82 26 -16 18 40 22 72 25 196 4 146 5 148 28 158 37 14 39 35 8 75 -58 73
-83 109 -84 120 0 7 20 15 44 18 45 7 71 26 64 47 -2 7 -35 29 -72 48 -38 20
-75 46 -83 58 -13 20 -13 23 8 40 82 65 95 96 102 242 l5 94 -37 39 c-23 24
-61 48 -106 65 -65 26 -71 31 -103 88 -47 84 -105 140 -187 181 -115 56 -220
72 -360 53z m-713 -2079 l0 -175 -31 -3 -31 -3 0 181 0 181 31 -3 30 -3 1
-175z m78 160 c12 -12 25 -32 30 -46 15 -39 12 -199 -4 -239 -13 -31 -41 -55
-65 -55 -15 0 -14 67 0 72 8 3 13 42 15 110 3 87 1 107 -11 112 -20 7 -20 66
0 66 8 0 24 -9 35 -20z m144 -17 c3 -21 6 -102 6 -180 l0 -143 -35 0 -35 0 0
180 0 180 29 0 c25 0 29 -4 35 -37z m131 27 c3 -5 1 -29 -6 -52 -12 -47 -17
-38 71 -106 46 -36 64 -77 50 -115 -12 -35 -48 -77 -66 -77 -17 0 -23 68 -7
82 23 19 14 35 -39 74 -64 47 -75 60 -83 102 -5 27 -1 41 20 68 26 34 48 43
60 24z m81 -24 c34 -34 45 -66 22 -66 -7 0 -22 -3 -33 -6 -21 -5 -38 23 -48
79 -6 38 17 35 59 -7z m154 -1 c0 -13 -4 -27 -10 -30 -6 -4 -10 -53 -10 -116
0 -66 4 -109 10 -109 6 0 10 -16 10 -35 0 -39 -17 -46 -45 -18 -28 28 -36 64
-36 170 0 122 4 139 39 157 32 17 42 13 42 -19z m201 -12 c0 -27 2 -108 4
-180 l3 -133 -34 0 -34 0 0 180 0 180 30 0 c29 0 30 -2 31 -47z m99 29 c30
-24 39 -102 16 -137 -15 -23 -15 -27 -1 -41 11 -11 15 -36 15 -90 l0 -74 -35
0 -35 0 0 69 c0 39 -4 72 -9 75 -16 10 -19 57 -5 63 19 7 18 62 -2 101 -8 18
-13 36 -9 42 10 16 40 12 65 -8z m135 -162 l0 -175 -32 -3 -33 -3 0 181 0 181
32 -3 32 -3 1 -175z m66 170 c36 -20 49 -63 49 -170 0 -71 -5 -110 -15 -130
-15 -28 -42 -50 -64 -50 -17 0 -13 60 4 66 22 9 22 219 0 228 -17 6 -21 66 -4
66 6 0 19 -5 30 -10z m269 -20 c0 -30 0 -30 -60 -30 l-60 0 0 -40 0 -40 41 0
c38 0 40 -1 37 -27 -3 -24 -8 -28 -40 -31 -38 -3 -38 -4 -38 -48 l0 -44 60 0
60 0 0 -35 0 -35 -90 0 -90 0 0 180 0 180 90 0 90 0 0 -30z m102 -130 c1 -88
2 -168 2 -177 1 -13 -8 -19 -31 -21 l-33 -3 0 180 0 181 30 0 30 0 2 -160z
m88 150 c19 -10 40 -66 40 -106 0 -11 -8 -29 -19 -40 -18 -20 -18 -21 0 -43
15 -18 19 -40 19 -92 l0 -69 -35 0 -35 0 0 64 c0 43 -6 75 -17 96 -17 30 -17
32 0 44 21 16 23 79 2 96 -16 13 -20 42 -8 53 9 10 31 9 53 -3z m-891 -17 c26
-22 39 -113 30 -222 -4 -61 -10 -77 -28 -92 -13 -11 -27 -19 -32 -19 -14 0
-23 50 -10 63 14 14 15 213 1 222 -5 3 -10 19 -10 36 0 34 17 38 49 12z m701
-198 c0 -16 -27 -32 -37 -21 -7 7 16 36 28 36 5 0 9 -7 9 -15z m-1017 -54 c9
-20 17 -50 17 -65 0 -26 0 -26 -30 -11 -45 23 -77 96 -47 108 28 12 43 4 60
-32z"/>
<path d="M1690 2247 c0 -3 25 -31 55 -63 81 -83 144 -228 146 -334 0 -19 5
-44 10 -55 14 -30 1 92 -17 162 -19 74 -47 131 -93 192 -33 44 -101 110 -101
98z"/>
<path d="M1593 2168 c29 -29 65 -74 80 -99 25 -42 70 -159 65 -165 -2 -1 -15
0 -30 3 -21 4 -30 15 -44 54 -10 27 -21 49 -25 49 -5 0 -1 -16 7 -35 21 -52
19 -62 -15 -57 -26 3 -31 11 -50 68 -11 35 -34 85 -51 111 -39 64 -38 51 4
-29 40 -77 55 -146 35 -159 -35 -22 -47 -10 -64 64 -9 39 -23 86 -31 102 -7
17 -12 21 -9 10 2 -11 14 -59 25 -108 12 -48 18 -93 13 -99 -4 -7 -6 -29 -4
-50 l3 -38 -46 -1 c-25 -1 -52 -2 -58 -3 -7 -1 -15 16 -19 37 -3 20 -9 41 -14
45 -4 4 -5 -12 -1 -35 3 -24 3 -43 -2 -43 -8 0 -26 49 -59 160 l-13 45 4 -73
c4 -60 10 -78 31 -103 27 -32 25 -49 -4 -49 -13 0 -20 15 -31 68 -16 77 -26
51 -12 -30 10 -51 2 -75 -20 -62 -4 3 -8 0 -8 -6 0 -8 7 -9 18 -5 35 15 125
36 180 43 l57 7 5 40 c4 30 7 35 13 22 4 -10 7 -27 7 -38 0 -13 7 -19 23 -18
14 1 17 3 6 6 -17 4 -34 72 -21 85 4 3 18 9 32 13 25 6 25 5 23 -42 -2 -36 0
-42 6 -23 l8 25 4 -25 c3 -17 11 -25 24 -26 15 -1 16 0 3 3 -10 3 -18 14 -18
26 0 12 -3 33 -7 46 -6 23 -5 23 58 18 35 -3 65 -6 66 -6 1 -1 5 -17 9 -37 4
-24 2 -39 -6 -47 -10 -9 -11 -9 -6 0 4 7 -5 30 -19 50 -14 21 -25 35 -25 32 0
-17 23 -69 31 -69 5 0 8 -3 8 -7 -3 -20 2 -34 11 -28 6 3 10 -4 10 -15 0 -17
-4 -20 -17 -15 -10 4 -41 10 -70 12 -61 6 -125 -24 -147 -69 -16 -31 -3 -39
14 -8 6 11 20 25 32 31 18 10 20 9 15 -5 -4 -9 -2 -16 4 -16 5 0 19 -9 31 -20
24 -22 38 -26 38 -10 0 6 7 10 15 10 19 0 19 -34 0 -50 -20 -17 -62 -5 -70 20
-6 19 -25 28 -25 12 0 -21 43 -52 71 -52 25 0 33 6 44 35 11 25 12 41 5 61
-12 31 -9 37 14 28 15 -6 17 -16 13 -58 -3 -28 -9 -63 -15 -77 -13 -32 -58
-86 -83 -100 -16 -8 -21 -6 -28 13 l-9 23 -13 -28 c-11 -24 -11 -30 1 -37 8
-5 17 -7 19 -4 3 3 -1 9 -9 14 -8 6 -10 10 -4 10 21 0 35 -25 22 -38 -15 -15
-45 -16 -50 -1 -2 7 -15 6 -38 -5 -31 -14 -32 -15 -7 -11 15 3 37 1 48 -5 28
-15 73 13 66 41 -3 12 0 19 9 19 7 0 39 21 70 46 l56 46 -4 -56 c-1 -31 0 -56
5 -56 4 0 7 21 7 47 0 26 11 74 25 109 14 35 28 85 30 111 l5 48 -18 -60 c-22
-73 -37 -102 -79 -149 -41 -46 -51 -46 -22 0 29 47 59 164 59 230 0 128 -57
269 -144 359 -30 30 -59 55 -66 55 -6 0 13 -24 43 -52z m77 -447 c14 -26 1
-32 -44 -20 -31 9 -35 13 -25 25 17 20 57 17 69 -5z"/>
<path d="M1890 2153 c0 -38 -13 -55 -36 -48 -13 4 -12 2 4 -6 12 -7 22 -18 22
-26 0 -7 14 -26 32 -42 l31 -28 -17 -43 c-9 -23 -15 -45 -12 -47 2 -2 7 5 11
18 5 16 9 18 15 8 14 -21 24 36 11 59 -15 28 -14 32 8 32 18 0 19 3 9 30 -8
25 -13 28 -25 19 -10 -9 -17 -9 -25 -1 -9 9 -8 12 3 12 10 1 9 4 -5 15 -14 11
-17 22 -13 45 4 17 2 30 -3 30 -6 0 -10 -12 -10 -27z"/>
<path d="M1202 2126 c-17 -19 -35 -43 -42 -53 -8 -13 -13 -14 -16 -5 -3 6 -10
12 -15 12 -6 0 -6 -8 1 -19 15 -29 13 -33 -11 -21 -11 6 -28 10 -37 7 -10 -2
0 -9 26 -16 40 -11 57 -30 30 -32 -35 -3 -64 4 -75 19 -12 15 -13 14 -13 -1 0
-22 36 -40 72 -35 16 3 31 1 34 -4 3 -4 -3 -8 -13 -8 -17 -1 -17 -1 0 -11 9
-5 17 -19 17 -29 0 -21 -15 -27 -25 -10 -9 15 -85 50 -85 39 0 -6 15 -16 33
-24 54 -22 64 -41 40 -73 -14 -18 -28 -26 -44 -24 -23 2 -23 2 -5 -12 20 -16
43 -102 55 -201 7 -60 30 -117 53 -131 7 -5 5 4 -4 19 -10 14 -18 43 -18 64
l1 38 15 -27 c24 -45 23 -32 -1 29 -13 31 -21 61 -19 65 10 15 86 8 135 -13
27 -12 52 -19 55 -16 10 9 -58 40 -101 46 -31 5 -40 11 -45 31 -5 22 -7 23
-13 7 -4 -11 -5 -22 -2 -27 3 -4 -8 -10 -25 -12 -33 -5 -36 0 -46 70 -5 43 -3
53 26 96 35 51 38 65 27 142 -7 51 -7 52 39 103 25 28 41 51 36 51 -5 0 -24
-15 -40 -34z"/>
<path d="M1180 1835 c-1 -49 -4 -64 -10 -50 -7 15 -9 9 -9 -25 l0 -45 15 27
c20 37 28 108 15 138 -8 21 -10 13 -11 -45z"/>
<path d="M1214 1835 c4 -45 2 -63 -4 -50 -13 29 -12 4 1 -34 6 -17 14 -31 19
-31 17 0 17 42 -1 111 l-19 74 4 -70z"/>
<path d="M771 1867 c-17 -21 -41 -84 -41 -108 0 -23 50 -142 57 -135 2 2 -4
21 -15 43 -39 77 -36 141 10 190 12 12 17 23 11 23 -6 0 -16 -6 -22 -13z"/>
<path d="M1077 1869 c-10 -6 -25 -8 -32 -5 -8 3 -23 -7 -35 -24 -35 -49 -100
-80 -172 -81 -51 -1 -56 -3 -28 -8 33 -6 33 -7 10 -13 -13 -4 -21 -10 -18 -13
3 -4 20 1 38 10 18 9 33 15 35 13 2 -2 -16 -35 -40 -73 l-43 -70 20 -75 c16
-61 20 -106 20 -233 0 -87 2 -156 3 -155 11 12 23 215 15 255 -5 27 -11 68
-14 93 -3 25 -8 63 -11 85 -5 34 -1 51 30 108 20 37 41 67 46 67 11 0 5 -193
-13 -368 -6 -61 -9 -114 -7 -116 2 -3 36 3 74 14 l70 18 -2 57 c-2 65 -6 73
-28 55 -17 -14 -21 0 -4 17 7 7 15 35 20 64 7 47 5 56 -23 107 l-30 55 12 74
c7 40 17 73 21 73 5 0 10 -44 11 -97 l2 -98 3 90 c4 126 6 131 58 154 25 11
45 22 45 25 0 9 -13 7 -33 -5z m-118 -297 c7 -16 11 -60 11 -98 -1 -38 1 -86
5 -106 7 -34 5 -38 -19 -44 -15 -3 -29 -4 -32 -2 -7 8 8 278 16 278 4 0 13
-13 19 -28z"/>
<path d="M1907 1733 c5 -34 26 -103 49 -157 6 -15 4 -18 -7 -12 -8 4 3 -8 23
-28 45 -43 72 -49 29 -6 -33 33 -68 119 -78 187 -3 24 -9 46 -14 48 -4 3 -5
-12 -2 -32z"/>
<path d="M707 1680 c3 -19 10 -41 16 -48 18 -23 18 -5 -2 39 -19 43 -20 43
-14 9z"/>
<path d="M699 1617 c12 -15 10 -17 -25 -18 l-39 -1 30 -9 c17 -4 43 -5 58 -1
l28 7 -33 20 c-28 16 -31 16 -19 2z"/>
<path d="M1916 1600 c4 -19 10 -84 14 -145 4 -60 8 -99 9 -85 l1 25 20 -25
c25 -31 25 -27 0 37 -10 28 -20 81 -22 117 -1 36 -8 76 -15 88 -13 21 -13 21
-7 -12z"/>
<path d="M1085 1595 c5 -26 22 -58 65 -125 5 -8 19 -53 31 -99 16 -60 35 -103
66 -149 24 -35 40 -62 36 -59 -5 3 -7 -11 -6 -31 l4 -37 -25 45 c-13 25 -23
47 -21 50 2 4 -11 24 -29 47 -29 37 -43 64 -73 143 -8 19 -9 5 -8 -55 3 -96
27 -164 50 -141 13 12 11 21 -15 67 -16 30 -30 63 -29 74 0 14 4 10 14 -13 8
-18 23 -46 34 -61 11 -15 30 -53 41 -84 12 -32 41 -78 67 -107 l46 -52 -36 16
c-32 13 -68 36 -147 94 -16 12 -18 11 -14 -5 3 -11 -1 -25 -8 -31 -12 -9 -17
-2 -29 38 -15 49 -10 67 10 33 6 -10 11 -15 11 -10 0 4 -11 24 -23 45 -13 20
-30 55 -37 77 l-13 40 -9 -30 c-10 -40 -2 -66 20 -58 14 5 15 3 5 -8 -7 -7
-13 -18 -13 -23 0 -6 7 -2 15 8 11 15 15 16 15 5 0 -8 -5 -20 -10 -25 -7 -7
-4 -24 9 -55 20 -44 29 -125 12 -115 -4 3 -16 30 -25 60 -10 30 -27 62 -38 73
-17 15 -15 7 11 -45 17 -34 38 -86 45 -115 l14 -52 7 40 c11 62 16 76 26 70 5
-3 6 1 3 9 -3 8 -1 24 6 35 10 20 12 20 61 -14 28 -19 55 -35 60 -35 13 0 11
-128 -3 -153 -6 -12 -26 -41 -45 -63 -38 -47 -133 -202 -133 -217 0 -6 25 30
56 79 65 104 122 181 167 226 18 18 40 46 50 61 10 15 22 25 26 22 5 -3 40 28
78 68 55 60 78 77 121 91 29 10 56 16 59 12 3 -3 -11 -28 -31 -56 -20 -27 -36
-53 -36 -56 0 -4 -35 -45 -79 -93 -97 -107 -205 -248 -251 -329 -19 -34 -40
-62 -46 -62 -6 0 -31 7 -55 15 -24 9 -39 12 -34 7 11 -10 102 -42 119 -42 6 0
6 4 -1 8 -36 23 338 495 410 518 41 13 164 103 206 151 l43 48 -7 -40 c-9 -47
-40 -105 -90 -165 -35 -42 -90 -138 -83 -145 2 -2 17 22 33 53 16 31 56 84 87
118 32 33 55 64 52 67 -3 3 1 18 8 34 8 16 15 66 16 118 2 75 0 86 -10 65 -6
-14 -23 -49 -37 -79 -43 -92 -152 -192 -245 -227 -17 -7 -16 -3 6 27 27 35 67
118 87 180 6 20 25 57 41 83 40 63 38 69 -7 16 -21 -24 -37 -47 -36 -50 1 -3
-12 -21 -29 -40 -16 -19 -26 -28 -22 -20 4 8 -21 -10 -57 -41 -35 -30 -75 -63
-89 -72 -20 -14 -21 -17 -7 -17 10 0 15 -5 12 -10 -4 -6 -10 -8 -14 -5 -10 6
-54 -41 -57 -61 -6 -41 -11 -17 -13 58 l-1 83 25 -30 c18 -21 24 -24 19 -10
-4 11 -14 28 -22 37 -8 10 -12 27 -9 39 5 17 3 19 -6 10 -7 -7 -13 -52 -15
-111 -2 -55 -8 -100 -13 -100 -13 0 -11 207 1 231 6 10 20 19 31 19 13 0 18
-4 13 -12 -5 -8 -2 -9 10 -5 10 4 21 7 24 7 4 1 -18 11 -48 24 -40 16 -62 21
-78 14 -25 -9 -42 -3 -42 14 0 6 11 8 28 4 19 -5 12 2 -22 21 -59 33 -98 80
-77 92 10 7 9 9 -3 14 -9 4 -16 19 -17 34 l-1 28 -7 -25 c-10 -36 31 -115 70
-136 22 -11 28 -19 21 -26 -7 -7 -26 -5 -60 7 -45 16 -50 22 -55 54 -3 20 -9
47 -13 60 -6 19 -4 22 7 16 8 -4 -3 10 -23 31 -20 21 -46 59 -58 84 -16 34
-20 38 -15 15z m195 -285 c3 0 13 -7 22 -14 17 -12 17 -16 1 -62 l-16 -49 -10
30 c-6 17 -16 35 -23 40 -7 6 -17 21 -22 35 -9 24 -8 25 17 24 14 -1 28 -3 31
-4z m110 -27 c0 -30 -25 -91 -43 -105 l-22 -16 28 -7 c26 -7 27 -9 27 -76 0
-80 -8 -85 -57 -37 -26 25 -33 40 -33 70 0 35 2 38 19 28 31 -16 38 -11 14 9
-19 16 -20 22 -11 67 5 27 17 55 26 62 17 13 52 16 52 5z m270 -64 c0 -14 -38
-49 -53 -49 -19 0 -14 35 8 60 14 15 21 17 32 9 7 -6 13 -15 13 -20z m-332
-215 c28 -8 28 -12 -8 -54 l-30 -34 0 47 c0 49 1 50 38 41z"/>
<path d="M1226 1569 c-38 -30 -32 -41 14 -23 27 11 55 14 83 10 l42 -6 -24 20
c-30 26 -81 26 -115 -1z"/>
<path d="M1730 1424 c-7 -21 -26 -50 -43 -65 -24 -22 -26 -27 -11 -25 19 2 83
111 71 122 -3 3 -11 -12 -17 -32z"/>
<path d="M1781 1405 c0 -11 -17 -54 -36 -94 -26 -53 -32 -76 -24 -82 6 -4 8
-12 5 -18 -4 -6 -5 -11 -2 -11 21 0 70 151 63 196 -2 17 -5 21 -6 9z"/>
<path d="M517 1390 c-19 -68 2 -186 44 -245 12 -16 18 -21 14 -10 -4 11 -14
37 -21 57 -8 20 -17 79 -22 130 -5 64 -10 85 -15 68z"/>
<path d="M1917 1303 c-3 -21 -8 -47 -12 -58 -3 -11 6 4 20 33 22 43 30 51 41
41 8 -6 14 -8 14 -3 1 5 8 -4 16 -19 9 -17 13 -41 10 -60 -6 -30 -5 -30 5 -7
6 14 8 38 6 54 l-4 30 23 -27 c30 -35 44 -106 45 -235 l2 -107 9 65 c12 73 -1
195 -26 254 -17 42 -68 76 -112 76 -29 0 -32 -3 -37 -37z"/>
<path d="M1553 1293 c-46 -20 -83 -40 -83 -44 0 -5 8 -5 17 -2 17 7 17 6 0
-20 -23 -35 -21 -48 3 -18 11 13 20 32 20 42 0 11 7 19 16 19 23 0 114 41 114
51 0 5 -1 9 -2 8 -2 -1 -40 -17 -85 -36z"/>
<path d="M1773 1238 c-33 -51 -45 -90 -17 -53 20 25 56 96 52 100 -2 2 -18
-19 -35 -47z"/>
<path d="M870 1230 c0 -11 4 -20 8 -20 4 0 28 -20 52 -44 25 -24 48 -42 52
-40 3 2 10 -1 14 -7 4 -8 3 -9 -4 -5 -23 14 -12 -11 15 -35 15 -13 22 -17 15
-8 -7 10 -15 27 -17 39 -5 26 -23 48 -80 102 -46 43 -55 46 -55 18z"/>
<path d="M1100 1246 c0 -17 43 -106 51 -106 5 0 -3 24 -17 53 -28 55 -34 65
-34 53z"/>
<path d="M845 1102 c-9 -53 -19 -105 -22 -114 -5 -22 -27 -23 -84 -3 -76 27
-77 27 -34 41 29 9 34 13 16 13 -28 1 -117 -42 -149 -72 -21 -20 -22 -22 -5
-28 29 -12 215 -11 208 1 -3 6 4 10 18 10 31 0 46 18 54 65 7 42 18 36 38 -21
10 -29 14 -33 15 -16 0 13 -10 40 -22 61 -19 33 -21 45 -13 77 8 33 14 38 33
36 29 -4 28 0 -7 25 l-28 21 -18 -96z m-128 -129 c24 -10 43 -21 43 -24 0 -3
-34 -6 -75 -6 -55 0 -75 4 -75 13 0 15 28 33 50 34 8 0 34 -8 57 -17z"/>
<path d="M1850 1053 c-43 -28 -81 -66 -124 -123 -68 -90 -81 -125 -51 -136 20
-8 19 -30 -2 -38 -11 -5 -14 -10 -6 -14 7 -5 2 -30 -18 -82 -15 -41 -28 -68
-28 -60 -1 17 17 98 26 120 3 8 7 26 8 40 3 23 2 23 -11 -5 l-15 -30 5 40 c3
22 6 55 6 73 0 18 4 31 9 28 8 -5 25 113 17 121 -13 13 -38 -73 -42 -142 -3
-44 -7 -102 -9 -130 -10 -122 -14 -189 -9 -173 3 9 11 15 17 12 8 -3 24 34 45
102 l33 106 82 38 c127 59 191 76 230 62 29 -10 30 -10 13 3 -24 18 -64 19
-103 4 -15 -6 -48 -11 -73 -11 -25 0 -34 -3 -20 -5 21 -4 15 -10 -44 -39 -65
-33 -70 -34 -87 -18 -11 9 -19 22 -19 29 0 17 95 104 163 149 58 39 83 68 72
86 -9 15 -38 12 -65 -7z"/>
<path d="M1150 942 c0 -15 49 -52 69 -52 13 1 12 3 -4 12 -11 6 -30 20 -42 31
-13 11 -23 16 -23 9z"/>
<path d="M1350 722 c0 -6 12 -20 26 -31 40 -31 127 -29 177 4 49 34 47 40 -4
13 -27 -14 -61 -21 -101 -22 -51 -1 -62 2 -79 23 -10 13 -19 19 -19 13z"/>
<path d="M1896 660 c-15 -23 -48 -54 -73 -71 -28 -17 -40 -29 -29 -29 10 0 31
9 47 21 30 21 94 107 86 115 -2 2 -16 -14 -31 -36z"/>
</g>
</svg>
